<svg xmlns="http://www.w3.org/2000/svg" viewBox="0 0 256 256" width="256" height="256">
  <defs>
    <linearGradient id="bg" x1="0%" y1="0%" x2="100%" y2="100%">
      <stop offset="0%" style="stop-color:#6366f1"/>
      <stop offset="100%" style="stop-color:#818cf8"/>
    </linearGradient>
    <linearGradient id="glow" x1="0%" y1="0%" x2="100%" y2="100%">
      <stop offset="0%" style="stop-color:#a5b4fc;stop-opacity:0.4"/>
      <stop offset="100%" style="stop-color:#6366f1;stop-opacity:0"/>
    </linearGradient>
  </defs>
  <rect width="256" height="256" rx="56" fill="url(#bg)"/>
  <rect x="8" y="8" width="240" height="240" rx="48" fill="url(#glow)"/>
  <rect x="48" y="56" width="160" height="144" rx="16" fill="#1e1e2e" opacity="0.9"/>
  <rect x="56" y="72" width="144" height="120" rx="10" fill="#181825"/>
  <rect x="64" y="80" width="128" height="100" rx="6" fill="#11111b"/>
  <rect x="48" y="56" width="160" height="20" rx="10" fill="#313244"/>
  <circle cx="68" cy="66" r="4" fill="#f38ba8"/>
  <circle cx="82" cy="66" r="4" fill="#f9e2af"/>
  <circle cx="96" cy="66" r="4" fill="#a6e3a1"/>
  <rect x="48" y="76" width="160" height="2" fill="#45475a"/>
  <rect x="56" y="88" width="36" height="108" rx="6" fill="#181825"/>
  <rect x="60" y="96" width="28" height="10" rx="4" fill="#313244"/>
  <rect x="60" y="112" width="28" height="10" rx="4" fill="#313244"/>
  <rect x="60" y="128" width="28" height="10" rx="4" fill="#6366f1" opacity="0.6"/>
  <rect x="60" y="144" width="28" height="10" rx="4" fill="#313244"/>
  <rect x="60" y="160" width="28" height="10" rx="4" fill="#313244"/>
  <rect x="60" y="176" width="28" height="10" rx="4" fill="#313244"/>
  <rect x="96" y="88" width="96" height="108" rx="8" fill="#0e0e16"/>
  <text x="144" y="148" text-anchor="middle" font-family="sans-serif" font-weight="bold" font-size="28" fill="#6366f1">⚡</text>
</svg>
