<svg xmlns="http://www.w3.org/2000/svg" viewBox="0 0 512 512">
  <defs>
    <clipPath id="r"><rect width="512" height="512" rx="108"/></clipPath>
  </defs>
  <rect width="512" height="512" rx="108" fill="#f0f0f0"/>
  <g clip-path="url(#r)">
    <rect x="56" y="70" width="400" height="300" rx="20" fill="#fff" stroke="#ccc" stroke-width="3"/>
    <circle cx="92" cy="90" r="6" fill="#ff5f57"/>
    <circle cx="114" cy="90" r="6" fill="#febc2e"/>
    <circle cx="136" cy="90" r="6" fill="#28c840"/>
    <rect x="76" y="112" width="156" height="120" rx="10" fill="#1a1a2e" opacity="0.85"/>
    <rect x="248" y="112" width="188" height="70" rx="10" fill="#1a1a2e" opacity="0.5"/>
    <rect x="248" y="196" width="88" height="36" rx="6" fill="#1a1a2e" opacity="0.4"/>
    <rect x="350" y="196" width="86" height="36" rx="6" fill="#1a1a2e" opacity="0.4"/>
    <rect x="76" y="248" width="360" height="10" rx="3" fill="#1a1a2e" opacity="0.15"/>
    <rect x="56" y="400" width="400" height="60" rx="14" fill="#1a1a2e" opacity="0.2"/>
    <rect x="56" y="400" width="240" height="60" rx="14" fill="#1a1a2e" opacity="0.15"/>
    <rect x="56" y="278" width="400" height="100" rx="14" fill="#1a1a2e" opacity="0.12"/>
  </g>
</svg>
